<svg width="164" height="164" viewBox="0 0 164 164" fill="none" xmlns="http://www.w3.org/2000/svg">
<g clip-path="url(#clip0_23_849)">
<mask id="mask0_23_849" style="mask-type:luminance" maskUnits="userSpaceOnUse" x="7" y="25" width="88" height="88">
<path d="M94.5386 25.625H7.92667V112.237H94.5386V25.625Z" fill="white"/>
</mask>
<g mask="url(#mask0_23_849)">
<path d="M46.7907 27.7466C49.0773 24.9203 53.3955 24.9203 55.6821 27.7466L59.7154 32.7396C61.1398 34.5014 63.4639 35.2511 65.6455 34.6663L71.8454 33.002C75.3615 32.0574 78.8475 34.5913 79.035 38.2273L79.3648 44.6372C79.4848 46.8938 80.9167 48.873 83.0308 49.6826L89.0284 51.9767C92.4245 53.2812 93.7589 57.382 91.7722 60.4332L88.2712 65.816C87.0417 67.7127 87.0417 70.1567 88.2712 72.0534L91.7722 77.4362C93.7589 80.4875 92.4245 84.5883 89.0284 85.8928L83.0308 88.1868C80.9167 88.9965 79.4848 90.9682 79.3648 93.2322L79.035 99.6421C78.8475 103.278 75.354 105.812 71.8454 104.867L65.6455 103.203C63.4639 102.618 61.1323 103.368 59.7154 105.13L55.6821 110.123C53.3955 112.949 49.0773 112.949 46.7907 110.123L42.7574 105.13C41.333 103.368 39.0089 102.618 36.8273 103.203L30.6273 104.867C27.1113 105.812 23.6252 103.278 23.4378 99.6421L23.1079 93.2322C22.988 90.9757 21.5561 88.9965 19.4419 88.1868L13.4444 85.8928C10.0483 84.5883 8.71384 80.4875 10.7005 77.4362L14.2016 72.0534C15.4311 70.1567 15.4311 67.7127 14.2016 65.816L10.7005 60.4332C8.71384 57.382 10.0483 53.2812 13.4444 51.9767L19.4419 49.6826C21.5561 48.873 22.988 46.9013 23.1079 44.6372L23.4378 38.2273C23.6252 34.5913 27.1188 32.0574 30.6273 33.002L36.8273 34.6663C39.0089 35.2511 41.3404 34.5014 42.7574 32.7396L46.7907 27.7466Z" fill="#FBC02D"/>
<path d="M51.1539 99.8745C68.2544 99.8745 82.1162 86.0127 82.1162 68.9122C82.1162 51.8118 68.2544 37.9499 51.1539 37.9499C34.0534 37.9499 20.1916 51.8118 20.1916 68.9122C20.1916 86.0127 34.0534 99.8745 51.1539 99.8745Z" fill="#FFEE58"/>
<path opacity="0.4" d="M51.1539 99.8745C68.2544 99.8745 82.1162 86.0127 82.1162 68.9122C82.1162 51.8118 68.2544 37.9499 51.1539 37.9499C34.0534 37.9499 20.1916 51.8118 20.1916 68.9122C20.1916 86.0127 34.0534 99.8745 51.1539 99.8745Z" fill="url(#paint0_linear_23_849)"/>
<path d="M55.697 60.4482C55.697 69.3246 48.5 76.5216 39.6236 76.5216C30.7473 76.5216 23.5502 69.3246 23.5502 60.4482C23.5502 51.5718 30.7473 44.3748 39.6236 44.3748C48.5 44.3748 55.697 51.5718 55.697 60.4482Z" fill="url(#paint1_radial_23_849)"/>
</g>
<path d="M43.6945 141.07C63.4489 141.07 79.4623 125.057 79.4623 105.302C79.4623 85.5479 63.4489 69.5345 43.6945 69.5345C23.9401 69.5345 7.92667 85.5479 7.92667 105.302C7.92667 125.057 23.9401 141.07 43.6945 141.07Z" fill="white"/>
<path d="M94.0213 72.7431H43.6945V141.078H94.0138V72.7431H94.0213Z" fill="white"/>
<path d="M98.347 141.07C130.224 141.07 156.066 115.228 156.066 83.3513C156.066 51.4744 130.224 25.625 98.347 25.625C66.4701 25.625 40.6282 51.4669 40.6282 83.3438C40.6282 115.221 66.4701 141.063 98.347 141.063V141.07Z" fill="white"/>
<path d="M43.6945 141.07C63.4489 141.07 79.4623 125.057 79.4623 105.302C79.4623 85.5479 63.4489 69.5345 43.6945 69.5345C23.9401 69.5345 7.92667 85.5479 7.92667 105.302C7.92667 125.057 23.9401 141.07 43.6945 141.07Z" fill="url(#paint2_radial_23_849)"/>
</g>
<defs>
<linearGradient id="paint0_linear_23_849" x1="24.2774" y1="42.0358" x2="89.5681" y2="107.326" gradientUnits="userSpaceOnUse">
<stop stop-color="#FFFF00" stop-opacity="0.2"/>
<stop offset="0.13" stop-color="#FDEF0B" stop-opacity="0.4"/>
<stop offset="0.27" stop-color="#FDE015" stop-opacity="0.58"/>
<stop offset="0.41" stop-color="#FCD41E" stop-opacity="0.73"/>
<stop offset="0.55" stop-color="#FBCB24" stop-opacity="0.85"/>
<stop offset="0.68" stop-color="#FBC529" stop-opacity="0.93"/>
<stop offset="0.82" stop-color="#FBC12C" stop-opacity="0.98"/>
<stop offset="0.94" stop-color="#FBC02D"/>
</linearGradient>
<radialGradient id="paint1_radial_23_849" cx="0" cy="0" r="1" gradientUnits="userSpaceOnUse" gradientTransform="translate(39.5037 60.4482) rotate(90) scale(14.8439 14.8439)">
<stop stop-color="white"/>
<stop offset="1" stop-color="#FFF176" stop-opacity="0"/>
</radialGradient>
<radialGradient id="paint2_radial_23_849" cx="0" cy="0" r="1" gradientUnits="userSpaceOnUse" gradientTransform="translate(22.0801 126.947) rotate(-41.76) scale(86.9632)">
<stop stop-color="white" stop-opacity="0"/>
<stop offset="0.95" stop-color="#757575" stop-opacity="0.32"/>
</radialGradient>
<clipPath id="clip0_23_849">
<rect width="164" height="164" fill="white"/>
</clipPath>
</defs>
</svg>
