<svg width="28" height="26" viewBox="0 0 28 26" fill="none" xmlns="http://www.w3.org/2000/svg">
<path d="M14 10.8333C15.4044 10.8331 16.7841 11.2026 18.0004 11.9047C19.2167 12.6068 20.2268 13.6167 20.929 14.8328C21.6313 16.049 22.0011 17.4287 22.0011 18.8331C22.0012 20.2374 21.6315 21.6171 20.9293 22.8333H24.6667C25.0203 22.8333 25.3594 22.9738 25.6095 23.2239C25.8595 23.4739 26 23.813 26 24.1667C26 24.5203 25.8595 24.8594 25.6095 25.1095C25.3594 25.3595 25.0203 25.5 24.6667 25.5H3.33332C2.9797 25.5 2.64056 25.3595 2.39051 25.1095C2.14047 24.8594 1.99999 24.5203 1.99999 24.1667C1.99999 23.813 2.14047 23.4739 2.39051 23.2239C2.64056 22.9738 2.9797 22.8333 3.33332 22.8333H7.07066C6.36846 21.6171 5.99881 20.2374 5.99886 18.8331C5.99891 17.4287 6.36866 16.049 7.07094 14.8328C7.77322 13.6167 8.78328 12.6068 9.99959 11.9047C11.2159 11.2026 12.5956 10.8331 14 10.8333ZM14 13.5C12.9418 13.4999 11.9075 13.8146 11.0287 14.4041C10.1499 14.9935 9.46631 15.8311 9.06489 16.8102C8.66348 17.7893 8.56239 18.8656 8.7745 19.9023C8.9866 20.9391 9.5023 21.8892 10.256 22.632L10.4733 22.832H17.5267C18.3386 22.1154 18.9131 21.1686 19.1739 20.1176C19.4346 19.0665 19.3693 17.961 18.9864 16.948C18.6036 15.9349 17.9215 15.0625 17.0308 14.4466C16.14 13.8307 15.0829 13.5005 14 13.5ZM26 17.5C26.3536 17.5 26.6927 17.6405 26.9428 17.8905C27.1928 18.1406 27.3333 18.4797 27.3333 18.8333C27.3333 19.187 27.1928 19.5261 26.9428 19.7761C26.6927 20.0262 26.3536 20.1667 26 20.1667H24.6667C24.313 20.1667 23.9739 20.0262 23.7238 19.7761C23.4738 19.5261 23.3333 19.187 23.3333 18.8333C23.3333 18.4797 23.4738 18.1406 23.7238 17.8905C23.9739 17.6405 24.313 17.5 24.6667 17.5H26ZM3.33332 17.5C3.68694 17.5 4.02608 17.6405 4.27613 17.8905C4.52618 18.1406 4.66666 18.4797 4.66666 18.8333C4.66666 19.187 4.52618 19.5261 4.27613 19.7761C4.02608 20.0262 3.68694 20.1667 3.33332 20.1667H1.99999C1.64637 20.1667 1.30723 20.0262 1.05718 19.7761C0.807132 19.5261 0.666656 19.187 0.666656 18.8333C0.666656 18.4797 0.807132 18.1406 1.05718 17.8905C1.30723 17.6405 1.64637 17.5 1.99999 17.5H3.33332ZM4.57199 9.40534C4.80158 9.17577 5.10705 9.03786 5.43108 9.01748C5.75512 8.99711 6.07545 9.09567 6.33199 9.29467L6.45732 9.40534L7.39999 10.348C7.63912 10.5879 7.77795 10.9099 7.78829 11.2485C7.79863 11.5871 7.6797 11.917 7.45566 12.171C7.23161 12.4251 6.91925 12.5844 6.58202 12.6165C6.24479 12.6487 5.90798 12.5512 5.63999 12.344L5.51466 12.2333L4.57199 11.2907C4.32203 11.0406 4.18161 10.7016 4.18161 10.348C4.18161 9.99445 4.32203 9.65537 4.57199 9.40534ZM23.428 9.40534C23.6779 9.65537 23.8184 9.99445 23.8184 10.348C23.8184 10.7016 23.6779 11.0406 23.428 11.2907L22.4853 12.2333C22.2339 12.4762 21.897 12.6106 21.5475 12.6076C21.1979 12.6045 20.8634 12.4643 20.6162 12.2171C20.369 11.9699 20.2288 11.6355 20.2258 11.2859C20.2227 10.9363 20.3571 10.5995 20.6 10.348L21.5427 9.40534C21.7927 9.15537 22.1318 9.01495 22.4853 9.01495C22.8389 9.01495 23.1779 9.15537 23.428 9.40534ZM14.9427 0.397336L17.7707 3.22534C17.898 3.34833 17.9996 3.49546 18.0695 3.65813C18.1393 3.8208 18.1761 3.99576 18.1777 4.1728C18.1792 4.34984 18.1455 4.52541 18.0784 4.68927C18.0114 4.85314 17.9124 5.00201 17.7872 5.1272C17.662 5.25239 17.5131 5.35139 17.3493 5.41843C17.1854 5.48547 17.0098 5.51921 16.8328 5.51767C16.6557 5.51613 16.4808 5.47935 16.3181 5.40947C16.1554 5.33959 16.0083 5.23802 15.8853 5.11067L15.3333 4.55867V8.16667C15.3333 8.52029 15.1928 8.85943 14.9428 9.10948C14.6927 9.35953 14.3536 9.5 14 9.5C13.6464 9.5 13.3072 9.35953 13.0572 9.10948C12.8071 8.85943 12.6667 8.52029 12.6667 8.16667V4.55867L12.1147 5.11067C11.8632 5.35355 11.5264 5.48794 11.1768 5.4849C10.8272 5.48186 10.4928 5.34164 10.2456 5.09443C9.99835 4.84722 9.85813 4.5128 9.85509 4.1632C9.85205 3.81361 9.98645 3.47681 10.2293 3.22534L13.056 0.397336C13.1798 0.273367 13.3269 0.175022 13.4887 0.107923C13.6506 0.0408235 13.8241 0.00628662 13.9993 0.00628662C14.1745 0.00628662 14.348 0.0408235 14.5099 0.107923C14.6718 0.175022 14.8188 0.273367 14.9427 0.397336Z" fill="#212121" fill-opacity="0.6"/>
</svg>
