<svg width="28" height="27" viewBox="0 0 28 27" fill="none" xmlns="http://www.w3.org/2000/svg">
<path d="M4.66667 8.16667H16C16.6192 8.17852 17.2295 8.01761 17.7624 7.70198C18.2953 7.38636 18.7298 6.9285 19.017 6.37977C19.3042 5.83105 19.4329 5.21315 19.3886 4.59538C19.3442 3.97761 19.1287 3.38441 18.766 2.88231C18.4034 2.38021 17.9081 1.98907 17.3356 1.75277C16.7631 1.51646 16.136 1.44433 15.5248 1.54447C14.9136 1.64461 14.3424 1.91305 13.8752 2.3197C13.4081 2.72634 13.0634 3.2551 12.88 3.84667M2 13.5H22.6667C23.2859 13.4882 23.8962 13.6491 24.4291 13.9647C24.962 14.2803 25.3964 14.7382 25.6837 15.2869C25.9709 15.8356 26.0995 16.4535 26.0552 17.0713C26.0109 17.6891 25.7953 18.2823 25.4327 18.7844C25.0701 19.2865 24.5747 19.6776 24.0022 19.9139C23.4297 20.1502 22.8027 20.2223 22.1915 20.1222C21.5803 20.0221 21.0091 19.7536 20.5419 19.347C20.0747 18.9403 19.7301 18.4116 19.5467 17.82M3.33333 18.8333H10.6667C11.2859 18.8215 11.8962 18.9824 12.4291 19.298C12.962 19.6136 13.3964 20.0715 13.6837 20.6202C13.9709 21.169 14.0996 21.7869 14.0552 22.4046C14.0109 23.0224 13.7953 23.6156 13.4327 24.1177C13.0701 24.6198 12.5747 25.0109 12.0022 25.2472C11.4297 25.4835 10.8027 25.5557 10.1915 25.4555C9.58029 25.3554 9.00907 25.087 8.5419 24.6803C8.07474 24.2737 7.73011 23.7449 7.54667 23.1533" stroke="#212121" stroke-opacity="0.6" stroke-width="2.66667" stroke-linecap="round" stroke-linejoin="round"/>
</svg>
