<svg width="17" height="13" viewBox="0 0 17 13" fill="none" xmlns="http://www.w3.org/2000/svg">
<path d="M3.008 5.392C2.53867 5.392 2.11733 5.28533 1.744 5.072C1.38133 4.85867 1.09333 4.57067 0.88 4.208C0.666667 3.84533 0.56 3.43467 0.56 2.976C0.56 2.51733 0.666667 2.112 0.88 1.76C1.09333 1.39733 1.38133 1.10933 1.744 0.896C2.11733 0.682666 2.53867 0.575999 3.008 0.575999C3.46667 0.575999 3.87733 0.682666 4.24 0.896C4.60267 1.09867 4.89067 1.38133 5.104 1.744C5.31733 2.10667 5.424 2.51733 5.424 2.976C5.424 3.43467 5.31733 3.85067 5.104 4.224C4.89067 4.58667 4.60267 4.87467 4.24 5.088C3.87733 5.29067 3.46667 5.392 3.008 5.392ZM3.008 4.4C3.40267 4.4 3.72267 4.26667 3.968 4C4.224 3.73333 4.352 3.392 4.352 2.976C4.352 2.57067 4.224 2.23467 3.968 1.968C3.72267 1.70133 3.40267 1.568 3.008 1.568C2.60267 1.568 2.272 1.70133 2.016 1.968C1.76 2.23467 1.632 2.57067 1.632 2.976C1.632 3.392 1.76 3.73333 2.016 4C2.272 4.26667 2.60267 4.4 3.008 4.4ZM12.3774 12.144C11.236 12.144 10.26 11.9093 9.44938 11.44C8.63871 10.9707 8.01471 10.304 7.57738 9.44C7.15071 8.56533 6.93738 7.536 6.93738 6.352C6.93738 5.46667 7.06004 4.672 7.30538 3.968C7.55071 3.25333 7.90271 2.64533 8.36138 2.144C8.83071 1.632 9.40138 1.24267 10.0734 0.976C10.756 0.709333 11.524 0.575999 12.3774 0.575999C13.0067 0.575999 13.6094 0.661333 14.1854 0.832C14.772 1.00267 15.2787 1.248 15.7054 1.568C15.8867 1.68533 16.004 1.82933 16.0574 2C16.1214 2.16 16.132 2.31467 16.0894 2.464C16.0574 2.61333 15.988 2.74133 15.8814 2.848C15.7747 2.944 15.636 2.99733 15.4654 3.008C15.3054 3.01867 15.1294 2.96 14.9374 2.832C14.5854 2.56533 14.196 2.368 13.7694 2.24C13.3427 2.112 12.8947 2.048 12.4254 2.048C11.6147 2.048 10.932 2.21867 10.3774 2.56C9.82271 2.89067 9.40138 3.376 9.11338 4.016C8.82538 4.656 8.68138 5.43467 8.68138 6.352C8.68138 7.26933 8.82538 8.05333 9.11338 8.704C9.40138 9.344 9.82271 9.83467 10.3774 10.176C10.932 10.5067 11.6147 10.672 12.4254 10.672C12.8947 10.672 13.3427 10.608 13.7694 10.48C14.2067 10.3413 14.6174 10.1387 15.0014 9.872C15.1934 9.75467 15.364 9.70133 15.5134 9.712C15.6734 9.72267 15.8067 9.776 15.9134 9.872C16.02 9.968 16.0894 10.0907 16.1214 10.24C16.164 10.3787 16.1587 10.528 16.1054 10.688C16.0627 10.8373 15.9614 10.9653 15.8014 11.072C15.364 11.424 14.8467 11.6907 14.2494 11.872C13.652 12.0533 13.028 12.144 12.3774 12.144Z" fill="#212121"/>
</svg>
