<svg width="15" height="13" viewBox="0 0 15 13" fill="none" xmlns="http://www.w3.org/2000/svg">
<path d="M2.508 5.392C2.03867 5.392 1.61733 5.28533 1.244 5.072C0.881333 4.85867 0.593333 4.57067 0.38 4.208C0.166667 3.84533 0.06 3.43467 0.06 2.976C0.06 2.51733 0.166667 2.112 0.38 1.76C0.593333 1.39733 0.881333 1.10933 1.244 0.896C1.61733 0.682666 2.03867 0.575999 2.508 0.575999C2.96667 0.575999 3.37733 0.682666 3.74 0.896C4.10267 1.09867 4.39067 1.38133 4.604 1.744C4.81733 2.10667 4.924 2.51733 4.924 2.976C4.924 3.43467 4.81733 3.85067 4.604 4.224C4.39067 4.58667 4.10267 4.87467 3.74 5.088C3.37733 5.29067 2.96667 5.392 2.508 5.392ZM2.508 4.4C2.90267 4.4 3.22267 4.26667 3.468 4C3.724 3.73333 3.852 3.392 3.852 2.976C3.852 2.57067 3.724 2.23467 3.468 1.968C3.22267 1.70133 2.90267 1.568 2.508 1.568C2.10267 1.568 1.772 1.70133 1.516 1.968C1.26 2.23467 1.132 2.57067 1.132 2.976C1.132 3.392 1.26 3.73333 1.516 4C1.772 4.26667 2.10267 4.4 2.508 4.4ZM7.842 12.112C7.56467 12.112 7.346 12.0373 7.186 11.888C7.03667 11.7387 6.962 11.52 6.962 11.232V1.616C6.962 1.328 7.03667 1.10933 7.186 0.959999C7.346 0.799999 7.57 0.719999 7.858 0.719999H13.554C13.7887 0.719999 13.9593 0.778666 14.066 0.896C14.1833 1.00267 14.242 1.16267 14.242 1.376C14.242 1.6 14.1833 1.77067 14.066 1.888C13.9593 2.00533 13.7887 2.064 13.554 2.064H8.626V5.664H13.234C13.4473 5.664 13.6127 5.72267 13.73 5.84C13.858 5.94667 13.922 6.10667 13.922 6.32C13.922 6.544 13.858 6.71467 13.73 6.832C13.6127 6.94933 13.4473 7.008 13.234 7.008H8.626V11.232C8.626 11.8187 8.36467 12.112 7.842 12.112Z" fill="#F5F5F5"/>
</svg>
